<mxfile host="65bd71144e">
    <diagram id="XyvPSgp5hGim7mAnAX3n" name="Page-1">
        <mxGraphModel dx="757" dy="462" grid="1" gridSize="10" guides="1" tooltips="1" connect="1" arrows="1" fold="1" page="1" pageScale="1" pageWidth="1169" pageHeight="827" math="0" shadow="0">
            <root>
                <mxCell id="0"/>
                <mxCell id="1" parent="0"/>
                <mxCell id="128" value="" style="group" vertex="1" connectable="0" parent="1">
                    <mxGeometry x="160" y="65.52" width="165" height="409" as="geometry"/>
                </mxCell>
                <mxCell id="125" value="" style="whiteSpace=wrap;html=1;container=0;strokeColor=none;" vertex="1" parent="128">
                    <mxGeometry width="165" height="409" as="geometry"/>
                </mxCell>
                <mxCell id="31" value="&lt;span style=&quot;color: rgba(0, 0, 0, 0); font-family: monospace; font-size: 0px; text-align: start;&quot;&gt;%3CmxGraphModel%3E%3Croot%3E%3CmxCell%20id%3D%220%22%2F%3E%3CmxCell%20id%3D%221%22%20parent%3D%220%22%2F%3E%3CmxCell%20id%3D%222%22%20value%3D%22%26lt%3Bfont%20style%3D%26quot%3Bfont-size%3A%208px%3B%26quot%3B%26gt%3B.JSON%26lt%3B%2Ffont%26gt%3B%22%20style%3D%22html%3D1%3Bdashed%3D0%3Bwhitespace%3Dwrap%3BstrokeWidth%3D1%3BfontSize%3D14%3BfillColor%3D%23f9f7ed%3BstrokeColor%3D%2336393d%3B%22%20vertex%3D%221%22%20parent%3D%221%22%3E%3CmxGeometry%20x%3D%22144.5%22%20y%3D%22530%22%20width%3D%2248.38%22%20height%3D%2255%22%20as%3D%22geometry%22%2F%3E%3C%2FmxCell%3E%3C%2Froot%3E%3C%2FmxGraphModel%3E&lt;/span&gt;" style="sketch=0;html=1;aspect=fixed;shadow=0;align=center;verticalAlign=top;shape=mxgraph.gcp2.external_data_resource;fillColor=#f5f5f5;strokeColor=#000000;fontColor=#333333;strokeWidth=1;container=0;" parent="128" vertex="1">
                    <mxGeometry x="67" y="4.480000000000004" width="28.204554347826086" height="35.70247304347826" as="geometry"/>
                </mxCell>
                <mxCell id="38" value="&lt;font style=&quot;font-size: 11px;&quot;&gt;Extraction&lt;/font&gt;" style="text;html=1;align=center;verticalAlign=middle;resizable=0;points=[];autosize=1;strokeColor=default;container=0;" parent="128" vertex="1">
                    <mxGeometry x="46.33333333333334" y="81.04162736653284" width="70" height="30" as="geometry"/>
                </mxCell>
                <mxCell id="123" value="" style="edgeStyle=none;html=1;entryX=0.495;entryY=-0.065;entryDx=0;entryDy=0;entryPerimeter=0;endSize=4;endArrow=classicThin;endFill=1;strokeColor=#4D4D4D;" edge="1" parent="128" source="31" target="38">
                    <mxGeometry relative="1" as="geometry"/>
                </mxCell>
                <mxCell id="54" value="&lt;font style=&quot;font-size: 11px;&quot;&gt;Transformation&lt;/font&gt;" style="text;html=1;align=center;verticalAlign=middle;resizable=0;points=[];autosize=1;strokeColor=default;container=0;" parent="128" vertex="1">
                    <mxGeometry x="30" y="192.73395751089095" width="100" height="30" as="geometry"/>
                </mxCell>
                <mxCell id="69" value="&lt;font style=&quot;font-size: 11px;&quot;&gt;Integration&lt;/font&gt;" style="text;html=1;align=center;verticalAlign=middle;resizable=0;points=[];autosize=1;strokeColor=default;container=0;" parent="128" vertex="1">
                    <mxGeometry x="39.666666666666714" y="302.1705902092765" width="80" height="30" as="geometry"/>
                </mxCell>
                <mxCell id="93" value="" style="edgeStyle=orthogonalEdgeStyle;html=1;strokeColor=#4D4D4D;fontSize=14;startArrow=none;startFill=0;endArrow=classicThin;endFill=1;endSize=5;" parent="128" target="54" edge="1">
                    <mxGeometry relative="1" as="geometry">
                        <mxPoint x="80" y="173.65468007004358" as="sourcePoint"/>
                    </mxGeometry>
                </mxCell>
                <mxCell id="94" value="" style="html=1;dashed=0;whitespace=wrap;strokeWidth=1;fontSize=14;fillColor=#eeeeee;strokeColor=#36393d;container=0;" parent="128" vertex="1">
                    <mxGeometry x="69.27333333333334" y="132.94228338429997" width="24.06" height="33.45493533783206" as="geometry"/>
                </mxCell>
                <mxCell id="92" value="" style="edgeStyle=orthogonalEdgeStyle;html=1;strokeColor=#4D4D4D;fontSize=14;startArrow=none;startFill=0;endArrow=classicThin;endFill=1;entryX=0.5;entryY=0;entryDx=0;entryDy=0;endSize=4;" parent="128" source="38" target="94" edge="1">
                    <mxGeometry relative="1" as="geometry">
                        <mxPoint x="80" y="132.85597843854106" as="targetPoint"/>
                    </mxGeometry>
                </mxCell>
                <mxCell id="95" value="&lt;font style=&quot;font-size: 7px;&quot;&gt;JSON&lt;/font&gt;" style="html=1;dashed=0;whitespace=wrap;strokeWidth=1;fontSize=14;fillColor=#eeeeee;strokeColor=#36393d;container=0;" parent="128" vertex="1">
                    <mxGeometry x="66.21333333333334" y="137.02215354745027" width="24.06" height="33.45493533783206" as="geometry"/>
                </mxCell>
                <mxCell id="96" value="" style="html=1;dashed=0;whitespace=wrap;strokeWidth=1;fontSize=14;fillColor=#f9f7ed;strokeColor=#36393d;container=0;" parent="128" vertex="1">
                    <mxGeometry x="68.16666666666669" y="240.56455074570772" width="24.06" height="33.45493533783206" as="geometry"/>
                </mxCell>
                <mxCell id="98" value="" style="edgeStyle=orthogonalEdgeStyle;html=1;strokeColor=#000000;fontSize=8;startArrow=none;startFill=0;endArrow=classicThin;endFill=1;entryX=0.5;entryY=0;entryDx=0;entryDy=0;endSize=4;" parent="128" source="54" target="96" edge="1">
                    <mxGeometry relative="1" as="geometry"/>
                </mxCell>
                <mxCell id="99" value="" style="edgeStyle=orthogonalEdgeStyle;html=1;strokeColor=#4D4D4D;fontSize=8;startArrow=none;startFill=0;endArrow=classicThin;endFill=1;endSize=5;" parent="128" target="69" edge="1">
                    <mxGeometry relative="1" as="geometry">
                        <mxPoint x="80" y="271.5715639856496" as="sourcePoint"/>
                    </mxGeometry>
                </mxCell>
                <mxCell id="97" value="&lt;font style=&quot;font-size: 7px;&quot;&gt;&amp;nbsp;JSON&lt;/font&gt;" style="html=1;dashed=0;whitespace=wrap;strokeWidth=1;fontSize=14;fillColor=#f9f7ed;strokeColor=#36393d;container=0;" parent="128" vertex="1">
                    <mxGeometry x="65.10666666666668" y="244.64442090885797" width="24.06" height="33.45493533783206" as="geometry"/>
                </mxCell>
                <mxCell id="105" value="&lt;font style=&quot;font-size: 8px;&quot;&gt;.JSON&lt;/font&gt;" style="html=1;dashed=0;whitespace=wrap;strokeWidth=1;fontSize=14;fillColor=#E3F1FF;strokeColor=#36393d;container=0;" parent="128" vertex="1">
                    <mxGeometry x="64.11333333333337" y="353.16896724865467" width="32.25333333333333" height="44.87857179465278" as="geometry"/>
                </mxCell>
                <mxCell id="107" value="" style="edgeStyle=orthogonalEdgeStyle;curved=1;html=1;strokeColor=#4D4D4D;fontSize=8;startArrow=none;startFill=0;endArrow=classicThin;endFill=1;entryX=0.5;entryY=0;entryDx=0;entryDy=0;endSize=4;" parent="128" source="69" target="105" edge="1">
                    <mxGeometry relative="1" as="geometry"/>
                </mxCell>
                <mxCell id="106" value="&lt;font style=&quot;font-size: 8px;&quot;&gt;JSON&lt;/font&gt;" style="html=1;dashed=0;whitespace=wrap;strokeWidth=1;fontSize=14;fillColor=#E3F1FF;strokeColor=#36393d;container=0;" parent="128" vertex="1">
                    <mxGeometry x="58.686666666666696" y="359.6967595096951" width="32.25333333333333" height="44.87857179465278" as="geometry"/>
                </mxCell>
                <mxCell id="112" value="&lt;span style=&quot;color: rgba(0, 0, 0, 0); font-family: monospace; font-size: 0px; text-align: start;&quot;&gt;%3CmxGraphModel%3E%3Croot%3E%3CmxCell%20id%3D%220%22%2F%3E%3CmxCell%20id%3D%221%22%20parent%3D%220%22%2F%3E%3CmxCell%20id%3D%222%22%20value%3D%22%26lt%3Bfont%20style%3D%26quot%3Bfont-size%3A%208px%3B%26quot%3B%26gt%3B.JSON%26lt%3B%2Ffont%26gt%3B%22%20style%3D%22html%3D1%3Bdashed%3D0%3Bwhitespace%3Dwrap%3BstrokeWidth%3D1%3BfontSize%3D14%3BfillColor%3D%23f9f7ed%3BstrokeColor%3D%2336393d%3B%22%20vertex%3D%221%22%20parent%3D%221%22%3E%3CmxGeometry%20x%3D%22144.5%22%20y%3D%22530%22%20width%3D%2248.38%22%20height%3D%2255%22%20as%3D%22geometry%22%2F%3E%3C%2FmxCell%3E%3C%2Froot%3E%3C%2FmxGraphModel%3E&lt;/span&gt;" style="sketch=0;html=1;aspect=fixed;shadow=0;align=center;verticalAlign=top;shape=mxgraph.gcp2.external_data_resource;fillColor=#f5f5f5;strokeColor=#000000;fontColor=#333333;strokeWidth=1;container=0;" parent="128" vertex="1">
                    <mxGeometry x="101.89999999999998" y="9.841361304347814" width="19.73819608695652" height="24.97975043478261" as="geometry"/>
                </mxCell>
                <mxCell id="113" value="&lt;span style=&quot;color: rgba(0, 0, 0, 0); font-family: monospace; font-size: 0px; text-align: start;&quot;&gt;%3CmxGraphModel%3E%3Croot%3E%3CmxCell%20id%3D%220%22%2F%3E%3CmxCell%20id%3D%221%22%20parent%3D%220%22%2F%3E%3CmxCell%20id%3D%222%22%20value%3D%22%26lt%3Bfont%20style%3D%26quot%3Bfont-size%3A%208px%3B%26quot%3B%26gt%3B.JSON%26lt%3B%2Ffont%26gt%3B%22%20style%3D%22html%3D1%3Bdashed%3D0%3Bwhitespace%3Dwrap%3BstrokeWidth%3D1%3BfontSize%3D14%3BfillColor%3D%23f9f7ed%3BstrokeColor%3D%2336393d%3B%22%20vertex%3D%221%22%20parent%3D%221%22%3E%3CmxGeometry%20x%3D%22144.5%22%20y%3D%22530%22%20width%3D%2248.38%22%20height%3D%2255%22%20as%3D%22geometry%22%2F%3E%3C%2FmxCell%3E%3C%2Froot%3E%3C%2FmxGraphModel%3E&lt;/span&gt;" style="sketch=0;html=1;aspect=fixed;shadow=0;align=center;verticalAlign=top;shape=mxgraph.gcp2.external_data_resource;fillColor=#f5f5f5;strokeColor=#000000;fontColor=#333333;strokeWidth=1;container=0;" parent="128" vertex="1">
                    <mxGeometry x="38.920000000000016" y="9.841361304347814" width="19.73819608695652" height="24.97975043478261" as="geometry"/>
                </mxCell>
            </root>
        </mxGraphModel>
    </diagram>
</mxfile>